<mxfile host="app.diagrams.net" modified="2023-11-13T14:15:05.376Z" agent="Mozilla/5.0 (Windows NT 10.0; Win64; x64) AppleWebKit/537.36 (KHTML, like Gecko) Chrome/119.0.0.0 Safari/537.36" etag="2vuCDO9GJIXDIIR7-az4" version="22.1.0" type="device">
  <diagram name="Страница — 1" id="ROPlZ8z5xa4U5-IYtggP">
    <mxGraphModel dx="1907" dy="557" grid="1" gridSize="10" guides="1" tooltips="1" connect="1" arrows="1" fold="1" page="1" pageScale="1" pageWidth="827" pageHeight="1169" math="0" shadow="0">
      <root>
        <mxCell id="0" />
        <mxCell id="1" parent="0" />
        <mxCell id="pJbT0rcqU8ZOd1i5hL_L-61" value="" style="rounded=0;whiteSpace=wrap;html=1;" parent="1" vertex="1">
          <mxGeometry x="-30" y="160" width="770" height="650" as="geometry" />
        </mxCell>
        <mxCell id="pJbT0rcqU8ZOd1i5hL_L-1" value="Главная" style="rounded=1;whiteSpace=wrap;html=1;" parent="1" vertex="1">
          <mxGeometry x="20" y="200" width="110" height="40" as="geometry" />
        </mxCell>
        <mxCell id="pJbT0rcqU8ZOd1i5hL_L-2" value="Продажи" style="rounded=1;whiteSpace=wrap;html=1;" parent="1" vertex="1">
          <mxGeometry x="160" y="200" width="110" height="40" as="geometry" />
        </mxCell>
        <mxCell id="pJbT0rcqU8ZOd1i5hL_L-3" value="Закупки" style="rounded=1;whiteSpace=wrap;html=1;" parent="1" vertex="1">
          <mxGeometry x="300" y="200" width="110" height="40" as="geometry" />
        </mxCell>
        <mxCell id="pJbT0rcqU8ZOd1i5hL_L-4" value="Склады" style="rounded=1;whiteSpace=wrap;html=1;" parent="1" vertex="1">
          <mxGeometry x="440" y="200" width="110" height="40" as="geometry" />
        </mxCell>
        <mxCell id="pJbT0rcqU8ZOd1i5hL_L-5" value="Сводка" style="rounded=1;whiteSpace=wrap;html=1;" parent="1" vertex="1">
          <mxGeometry x="580" y="200" width="110" height="40" as="geometry" />
        </mxCell>
        <mxCell id="pJbT0rcqU8ZOd1i5hL_L-8" value="&amp;nbsp; &amp;nbsp;Категория" style="rounded=1;whiteSpace=wrap;html=1;align=left;" parent="1" vertex="1">
          <mxGeometry x="20" y="280" width="140" height="30" as="geometry" />
        </mxCell>
        <mxCell id="pJbT0rcqU8ZOd1i5hL_L-9" value="&amp;nbsp; &amp;nbsp;Подкатегория" style="rounded=1;whiteSpace=wrap;html=1;align=left;" parent="1" vertex="1">
          <mxGeometry x="20" y="320" width="140" height="30" as="geometry" />
        </mxCell>
        <mxCell id="pJbT0rcqU8ZOd1i5hL_L-10" value="&amp;nbsp; &amp;nbsp;Тип товара" style="rounded=1;whiteSpace=wrap;html=1;align=left;" parent="1" vertex="1">
          <mxGeometry x="20" y="360" width="140" height="30" as="geometry" />
        </mxCell>
        <mxCell id="pJbT0rcqU8ZOd1i5hL_L-11" value="" style="verticalLabelPosition=bottom;verticalAlign=top;html=1;shape=mxgraph.basic.acute_triangle;dx=0.5;rotation=-180;fillColor=#333333;" parent="1" vertex="1">
          <mxGeometry x="140" y="290" width="10" height="10" as="geometry" />
        </mxCell>
        <mxCell id="pJbT0rcqU8ZOd1i5hL_L-12" value="" style="verticalLabelPosition=bottom;verticalAlign=top;html=1;shape=mxgraph.basic.acute_triangle;dx=0.5;rotation=-180;fillColor=#333333;" parent="1" vertex="1">
          <mxGeometry x="140" y="330" width="10" height="10" as="geometry" />
        </mxCell>
        <mxCell id="pJbT0rcqU8ZOd1i5hL_L-13" value="" style="verticalLabelPosition=bottom;verticalAlign=top;html=1;shape=mxgraph.basic.acute_triangle;dx=0.5;rotation=-180;fillColor=#333333;" parent="1" vertex="1">
          <mxGeometry x="140" y="370" width="10" height="10" as="geometry" />
        </mxCell>
        <mxCell id="pJbT0rcqU8ZOd1i5hL_L-14" value="" style="line;strokeWidth=4;html=1;perimeter=backbonePerimeter;points=[];outlineConnect=0;" parent="1" vertex="1">
          <mxGeometry x="-30" y="250" width="750" height="10" as="geometry" />
        </mxCell>
        <mxCell id="pJbT0rcqU8ZOd1i5hL_L-16" value="" style="line;strokeWidth=2;direction=south;html=1;" parent="1" vertex="1">
          <mxGeometry x="180" y="255" width="10" height="545" as="geometry" />
        </mxCell>
        <mxCell id="pJbT0rcqU8ZOd1i5hL_L-17" value="" style="endArrow=none;html=1;rounded=0;" parent="1" edge="1">
          <mxGeometry width="50" height="50" relative="1" as="geometry">
            <mxPoint y="410" as="sourcePoint" />
            <mxPoint x="180" y="410.48648648648646" as="targetPoint" />
          </mxGeometry>
        </mxCell>
        <mxCell id="pJbT0rcqU8ZOd1i5hL_L-18" value="&amp;nbsp; &amp;nbsp;Дата начала" style="rounded=1;whiteSpace=wrap;html=1;align=left;" parent="1" vertex="1">
          <mxGeometry x="20" y="430" width="140" height="30" as="geometry" />
        </mxCell>
        <mxCell id="pJbT0rcqU8ZOd1i5hL_L-19" value="&amp;nbsp; &amp;nbsp;Дата конца" style="rounded=1;whiteSpace=wrap;html=1;align=left;" parent="1" vertex="1">
          <mxGeometry x="20" y="470" width="140" height="30" as="geometry" />
        </mxCell>
        <mxCell id="pJbT0rcqU8ZOd1i5hL_L-21" value="" style="verticalLabelPosition=bottom;verticalAlign=top;html=1;shape=mxgraph.basic.acute_triangle;dx=0.5;rotation=-180;fillColor=#333333;" parent="1" vertex="1">
          <mxGeometry x="140" y="440" width="10" height="10" as="geometry" />
        </mxCell>
        <mxCell id="pJbT0rcqU8ZOd1i5hL_L-22" value="" style="verticalLabelPosition=bottom;verticalAlign=top;html=1;shape=mxgraph.basic.acute_triangle;dx=0.5;rotation=-180;fillColor=#333333;" parent="1" vertex="1">
          <mxGeometry x="140" y="480" width="10" height="10" as="geometry" />
        </mxCell>
        <mxCell id="pJbT0rcqU8ZOd1i5hL_L-24" value="" style="endArrow=none;html=1;rounded=0;" parent="1" edge="1">
          <mxGeometry width="50" height="50" relative="1" as="geometry">
            <mxPoint y="520" as="sourcePoint" />
            <mxPoint x="180" y="520.4864864864865" as="targetPoint" />
          </mxGeometry>
        </mxCell>
        <mxCell id="pJbT0rcqU8ZOd1i5hL_L-26" value="&amp;nbsp; &amp;nbsp;Способ вывода" style="rounded=1;whiteSpace=wrap;html=1;align=left;" parent="1" vertex="1">
          <mxGeometry x="20" y="540" width="140" height="30" as="geometry" />
        </mxCell>
        <mxCell id="pJbT0rcqU8ZOd1i5hL_L-27" value="&amp;nbsp; &amp;nbsp;Сортировка" style="rounded=1;whiteSpace=wrap;html=1;align=left;" parent="1" vertex="1">
          <mxGeometry x="20" y="580" width="140" height="30" as="geometry" />
        </mxCell>
        <mxCell id="pJbT0rcqU8ZOd1i5hL_L-28" value="" style="verticalLabelPosition=bottom;verticalAlign=top;html=1;shape=mxgraph.basic.acute_triangle;dx=0.5;rotation=-180;fillColor=#333333;" parent="1" vertex="1">
          <mxGeometry x="140" y="550" width="10" height="10" as="geometry" />
        </mxCell>
        <mxCell id="pJbT0rcqU8ZOd1i5hL_L-29" value="" style="verticalLabelPosition=bottom;verticalAlign=top;html=1;shape=mxgraph.basic.acute_triangle;dx=0.5;rotation=-180;fillColor=#333333;" parent="1" vertex="1">
          <mxGeometry x="140" y="590" width="10" height="10" as="geometry" />
        </mxCell>
        <mxCell id="pJbT0rcqU8ZOd1i5hL_L-30" value="&amp;nbsp; &amp;nbsp;Выбор поставщика" style="rounded=1;whiteSpace=wrap;html=1;align=left;" parent="1" vertex="1">
          <mxGeometry x="20" y="620" width="140" height="30" as="geometry" />
        </mxCell>
        <mxCell id="pJbT0rcqU8ZOd1i5hL_L-32" value="" style="verticalLabelPosition=bottom;verticalAlign=top;html=1;shape=mxgraph.basic.acute_triangle;dx=0.5;rotation=-180;fillColor=#333333;" parent="1" vertex="1">
          <mxGeometry x="140" y="630" width="10" height="10" as="geometry" />
        </mxCell>
        <mxCell id="pJbT0rcqU8ZOd1i5hL_L-34" value="Сформировать&lt;br&gt;отчет" style="rounded=1;whiteSpace=wrap;html=1;" parent="1" vertex="1">
          <mxGeometry x="20" y="690" width="140" height="40" as="geometry" />
        </mxCell>
        <mxCell id="pJbT0rcqU8ZOd1i5hL_L-35" value="" style="endArrow=none;html=1;rounded=0;" parent="1" edge="1">
          <mxGeometry width="50" height="50" relative="1" as="geometry">
            <mxPoint y="670" as="sourcePoint" />
            <mxPoint x="180" y="670.4864864864865" as="targetPoint" />
          </mxGeometry>
        </mxCell>
        <mxCell id="pJbT0rcqU8ZOd1i5hL_L-36" value="Отменить" style="rounded=1;whiteSpace=wrap;html=1;" parent="1" vertex="1">
          <mxGeometry x="20" y="740" width="140" height="40" as="geometry" />
        </mxCell>
        <mxCell id="pJbT0rcqU8ZOd1i5hL_L-37" value="Таблица" style="shape=table;startSize=30;container=1;collapsible=0;childLayout=tableLayout;strokeColor=default;fontSize=16;" parent="1" vertex="1">
          <mxGeometry x="240" y="340" width="180" height="150" as="geometry" />
        </mxCell>
        <mxCell id="pJbT0rcqU8ZOd1i5hL_L-38" value="" style="shape=tableRow;horizontal=0;startSize=0;swimlaneHead=0;swimlaneBody=0;strokeColor=inherit;top=0;left=0;bottom=0;right=0;collapsible=0;dropTarget=0;fillColor=none;points=[[0,0.5],[1,0.5]];portConstraint=eastwest;fontSize=16;" parent="pJbT0rcqU8ZOd1i5hL_L-37" vertex="1">
          <mxGeometry y="30" width="180" height="40" as="geometry" />
        </mxCell>
        <mxCell id="pJbT0rcqU8ZOd1i5hL_L-39" value="" style="shape=partialRectangle;html=1;whiteSpace=wrap;connectable=0;strokeColor=inherit;overflow=hidden;fillColor=none;top=0;left=0;bottom=0;right=0;pointerEvents=1;fontSize=16;" parent="pJbT0rcqU8ZOd1i5hL_L-38" vertex="1">
          <mxGeometry width="60" height="40" as="geometry">
            <mxRectangle width="60" height="40" as="alternateBounds" />
          </mxGeometry>
        </mxCell>
        <mxCell id="pJbT0rcqU8ZOd1i5hL_L-40" value="" style="shape=partialRectangle;html=1;whiteSpace=wrap;connectable=0;strokeColor=inherit;overflow=hidden;fillColor=none;top=0;left=0;bottom=0;right=0;pointerEvents=1;fontSize=16;" parent="pJbT0rcqU8ZOd1i5hL_L-38" vertex="1">
          <mxGeometry x="60" width="60" height="40" as="geometry">
            <mxRectangle width="60" height="40" as="alternateBounds" />
          </mxGeometry>
        </mxCell>
        <mxCell id="pJbT0rcqU8ZOd1i5hL_L-41" value="" style="shape=partialRectangle;html=1;whiteSpace=wrap;connectable=0;strokeColor=inherit;overflow=hidden;fillColor=none;top=0;left=0;bottom=0;right=0;pointerEvents=1;fontSize=16;" parent="pJbT0rcqU8ZOd1i5hL_L-38" vertex="1">
          <mxGeometry x="120" width="60" height="40" as="geometry">
            <mxRectangle width="60" height="40" as="alternateBounds" />
          </mxGeometry>
        </mxCell>
        <mxCell id="pJbT0rcqU8ZOd1i5hL_L-42" value="" style="shape=tableRow;horizontal=0;startSize=0;swimlaneHead=0;swimlaneBody=0;strokeColor=inherit;top=0;left=0;bottom=0;right=0;collapsible=0;dropTarget=0;fillColor=none;points=[[0,0.5],[1,0.5]];portConstraint=eastwest;fontSize=16;" parent="pJbT0rcqU8ZOd1i5hL_L-37" vertex="1">
          <mxGeometry y="70" width="180" height="40" as="geometry" />
        </mxCell>
        <mxCell id="pJbT0rcqU8ZOd1i5hL_L-43" value="" style="shape=partialRectangle;html=1;whiteSpace=wrap;connectable=0;strokeColor=inherit;overflow=hidden;fillColor=none;top=0;left=0;bottom=0;right=0;pointerEvents=1;fontSize=16;" parent="pJbT0rcqU8ZOd1i5hL_L-42" vertex="1">
          <mxGeometry width="60" height="40" as="geometry">
            <mxRectangle width="60" height="40" as="alternateBounds" />
          </mxGeometry>
        </mxCell>
        <mxCell id="pJbT0rcqU8ZOd1i5hL_L-44" value="" style="shape=partialRectangle;html=1;whiteSpace=wrap;connectable=0;strokeColor=inherit;overflow=hidden;fillColor=none;top=0;left=0;bottom=0;right=0;pointerEvents=1;fontSize=16;" parent="pJbT0rcqU8ZOd1i5hL_L-42" vertex="1">
          <mxGeometry x="60" width="60" height="40" as="geometry">
            <mxRectangle width="60" height="40" as="alternateBounds" />
          </mxGeometry>
        </mxCell>
        <mxCell id="pJbT0rcqU8ZOd1i5hL_L-45" value="" style="shape=partialRectangle;html=1;whiteSpace=wrap;connectable=0;strokeColor=inherit;overflow=hidden;fillColor=none;top=0;left=0;bottom=0;right=0;pointerEvents=1;fontSize=16;" parent="pJbT0rcqU8ZOd1i5hL_L-42" vertex="1">
          <mxGeometry x="120" width="60" height="40" as="geometry">
            <mxRectangle width="60" height="40" as="alternateBounds" />
          </mxGeometry>
        </mxCell>
        <mxCell id="pJbT0rcqU8ZOd1i5hL_L-46" value="" style="shape=tableRow;horizontal=0;startSize=0;swimlaneHead=0;swimlaneBody=0;strokeColor=inherit;top=0;left=0;bottom=0;right=0;collapsible=0;dropTarget=0;fillColor=none;points=[[0,0.5],[1,0.5]];portConstraint=eastwest;fontSize=16;" parent="pJbT0rcqU8ZOd1i5hL_L-37" vertex="1">
          <mxGeometry y="110" width="180" height="40" as="geometry" />
        </mxCell>
        <mxCell id="pJbT0rcqU8ZOd1i5hL_L-47" value="" style="shape=partialRectangle;html=1;whiteSpace=wrap;connectable=0;strokeColor=inherit;overflow=hidden;fillColor=none;top=0;left=0;bottom=0;right=0;pointerEvents=1;fontSize=16;" parent="pJbT0rcqU8ZOd1i5hL_L-46" vertex="1">
          <mxGeometry width="60" height="40" as="geometry">
            <mxRectangle width="60" height="40" as="alternateBounds" />
          </mxGeometry>
        </mxCell>
        <mxCell id="pJbT0rcqU8ZOd1i5hL_L-48" value="" style="shape=partialRectangle;html=1;whiteSpace=wrap;connectable=0;strokeColor=inherit;overflow=hidden;fillColor=none;top=0;left=0;bottom=0;right=0;pointerEvents=1;fontSize=16;" parent="pJbT0rcqU8ZOd1i5hL_L-46" vertex="1">
          <mxGeometry x="60" width="60" height="40" as="geometry">
            <mxRectangle width="60" height="40" as="alternateBounds" />
          </mxGeometry>
        </mxCell>
        <mxCell id="pJbT0rcqU8ZOd1i5hL_L-49" value="" style="shape=partialRectangle;html=1;whiteSpace=wrap;connectable=0;strokeColor=inherit;overflow=hidden;fillColor=none;top=0;left=0;bottom=0;right=0;pointerEvents=1;fontSize=16;" parent="pJbT0rcqU8ZOd1i5hL_L-46" vertex="1">
          <mxGeometry x="120" width="60" height="40" as="geometry">
            <mxRectangle width="60" height="40" as="alternateBounds" />
          </mxGeometry>
        </mxCell>
        <mxCell id="pJbT0rcqU8ZOd1i5hL_L-50" value="Заголовок" style="text;strokeColor=none;fillColor=none;html=1;fontSize=24;fontStyle=1;verticalAlign=middle;align=center;" parent="1" vertex="1">
          <mxGeometry x="230" y="275" width="100" height="40" as="geometry" />
        </mxCell>
        <mxCell id="pJbT0rcqU8ZOd1i5hL_L-51" value="" style="ellipse;whiteSpace=wrap;html=1;aspect=fixed;" parent="1" vertex="1">
          <mxGeometry x="470" y="360" width="135" height="135" as="geometry" />
        </mxCell>
        <mxCell id="pJbT0rcqU8ZOd1i5hL_L-52" value="" style="endArrow=none;html=1;rounded=0;entryX=1;entryY=0;entryDx=0;entryDy=0;exitX=0;exitY=1;exitDx=0;exitDy=0;" parent="1" source="pJbT0rcqU8ZOd1i5hL_L-51" target="pJbT0rcqU8ZOd1i5hL_L-51" edge="1">
          <mxGeometry width="50" height="50" relative="1" as="geometry">
            <mxPoint x="520" y="450" as="sourcePoint" />
            <mxPoint x="570" y="400" as="targetPoint" />
          </mxGeometry>
        </mxCell>
        <mxCell id="pJbT0rcqU8ZOd1i5hL_L-53" value="" style="endArrow=none;html=1;rounded=0;entryX=1;entryY=0.5;entryDx=0;entryDy=0;exitX=0.5;exitY=1;exitDx=0;exitDy=0;" parent="1" source="pJbT0rcqU8ZOd1i5hL_L-51" target="pJbT0rcqU8ZOd1i5hL_L-51" edge="1">
          <mxGeometry width="50" height="50" relative="1" as="geometry">
            <mxPoint x="503" y="482" as="sourcePoint" />
            <mxPoint x="617" y="368" as="targetPoint" />
            <Array as="points">
              <mxPoint x="538" y="428" />
            </Array>
          </mxGeometry>
        </mxCell>
        <mxCell id="pJbT0rcqU8ZOd1i5hL_L-56" value="" style="endArrow=classic;html=1;rounded=0;" parent="1" edge="1">
          <mxGeometry width="50" height="50" relative="1" as="geometry">
            <mxPoint x="240" y="720" as="sourcePoint" />
            <mxPoint x="240" y="560" as="targetPoint" />
          </mxGeometry>
        </mxCell>
        <mxCell id="pJbT0rcqU8ZOd1i5hL_L-57" value="" style="endArrow=classic;html=1;rounded=0;" parent="1" edge="1">
          <mxGeometry width="50" height="50" relative="1" as="geometry">
            <mxPoint x="240" y="720" as="sourcePoint" />
            <mxPoint x="600" y="720" as="targetPoint" />
          </mxGeometry>
        </mxCell>
        <mxCell id="pJbT0rcqU8ZOd1i5hL_L-58" value="" style="endArrow=none;html=1;rounded=0;" parent="1" edge="1">
          <mxGeometry width="50" height="50" relative="1" as="geometry">
            <mxPoint x="240" y="720" as="sourcePoint" />
            <mxPoint x="290" y="670" as="targetPoint" />
          </mxGeometry>
        </mxCell>
        <mxCell id="pJbT0rcqU8ZOd1i5hL_L-59" value="" style="endArrow=none;html=1;rounded=0;" parent="1" edge="1">
          <mxGeometry width="50" height="50" relative="1" as="geometry">
            <mxPoint x="290" y="670" as="sourcePoint" />
            <mxPoint x="330" y="650" as="targetPoint" />
            <Array as="points">
              <mxPoint x="310" y="690" />
            </Array>
          </mxGeometry>
        </mxCell>
        <mxCell id="pJbT0rcqU8ZOd1i5hL_L-60" value="" style="endArrow=none;html=1;rounded=0;" parent="1" edge="1">
          <mxGeometry width="50" height="50" relative="1" as="geometry">
            <mxPoint x="330" y="650" as="sourcePoint" />
            <mxPoint x="560" y="580" as="targetPoint" />
            <Array as="points">
              <mxPoint x="360" y="660" />
              <mxPoint x="460" y="600" />
              <mxPoint x="510" y="620" />
            </Array>
          </mxGeometry>
        </mxCell>
        <mxCell id="CYq1WdfeVTDW7Ns_vjNx-1" value="Диаграмма" style="text;html=1;align=center;verticalAlign=middle;resizable=0;points=[];autosize=1;strokeColor=none;fillColor=none;" vertex="1" parent="1">
          <mxGeometry x="490" y="330" width="90" height="30" as="geometry" />
        </mxCell>
        <mxCell id="CYq1WdfeVTDW7Ns_vjNx-2" value="График" style="text;html=1;align=center;verticalAlign=middle;resizable=0;points=[];autosize=1;strokeColor=none;fillColor=none;" vertex="1" parent="1">
          <mxGeometry x="390" y="530" width="60" height="30" as="geometry" />
        </mxCell>
      </root>
    </mxGraphModel>
  </diagram>
</mxfile>
